<svg width="24" height="24" viewBox="0 0 24 24" fill="none" xmlns="http://www.w3.org/2000/svg">
<path d="M12 21C10.755 21 9.585 20.7638 8.49 20.2912C7.395 19.8187 6.4425 19.1775 5.6325 18.3675C4.8225 17.5575 4.18125 16.605 3.70875 15.51C3.23625 14.415 3 13.245 3 12C3 10.755 3.23625 9.585 3.70875 8.49C4.18125 7.395 4.8225 6.4425 5.6325 5.6325C6.4425 4.8225 7.395 4.18125 8.49 3.70875C9.585 3.23625 10.755 3 12 3C13.245 3 14.415 3.23625 15.51 3.70875C16.605 4.18125 17.5575 4.8225 18.3675 5.6325C19.1775 6.4425 19.8187 7.395 20.2912 8.49C20.7638 9.585 21 10.755 21 12C21 13.245 20.7638 14.415 20.2912 15.51C19.8187 16.605 19.1775 17.5575 18.3675 18.3675C17.5575 19.1775 16.605 19.8187 15.51 20.2912C14.415 20.7638 13.245 21 12 21ZM12 19.65C14.115 19.65 15.9188 18.9038 17.4113 17.4113C18.9038 15.9188 19.65 14.115 19.65 12C19.65 9.885 18.9038 8.08125 17.4113 6.58875C15.9188 5.09625 14.115 4.35 12 4.35C9.885 4.35 8.08125 5.09625 6.58875 6.58875C5.09625 8.08125 4.35 9.885 4.35 12C4.35 14.115 5.09625 15.9188 6.58875 17.4113C8.08125 18.9038 9.885 19.65 12 19.65ZM12 18.3C10.26 18.3 8.775 17.685 7.545 16.455C6.315 15.225 5.7 13.74 5.7 12C5.7 10.26 6.315 8.775 7.545 7.545C8.775 6.315 10.26 5.7 12 5.7C13.74 5.7 15.225 6.315 16.455 7.545C17.685 8.775 18.3 10.26 18.3 12C18.3 13.74 17.685 15.225 16.455 16.455C15.225 17.685 13.74 18.3 12 18.3ZM12 16.95C13.365 16.95 14.5312 16.4662 15.4987 15.4987C16.4662 14.5312 16.95 13.365 16.95 12C16.95 10.635 16.4662 9.46875 15.4987 8.50125C14.5312 7.53375 13.365 7.05 12 7.05C10.635 7.05 9.46875 7.53375 8.50125 8.50125C7.53375 9.46875 7.05 10.635 7.05 12C7.05 13.365 7.53375 14.5312 8.50125 15.4987C9.46875 16.4662 10.635 16.95 12 16.95Z" fill="white"/>
</svg>
