<svg width="23" height="24" viewBox="0 0 23 24" fill="none" xmlns="http://www.w3.org/2000/svg">
<path d="M11.5 22.8947C9.99288 22.8947 8.7082 22.3636 7.64597 21.3014C6.58373 20.2391 6.05261 18.9545 6.05261 17.4474C6.05261 16.5213 6.26143 15.6497 6.67906 14.8326C7.09669 14.0155 7.71406 13.4072 8.53116 13.0078V4.07408C8.53116 3.25697 8.82169 2.55789 9.40274 1.97684C9.9838 1.39579 10.6829 1.10526 11.5 1.10526C12.3171 1.10526 13.0162 1.39579 13.5972 1.97684C14.1783 2.55789 14.4688 3.25697 14.4688 4.07408V13.0078C15.2859 13.4072 15.9033 14.0155 16.3209 14.8326C16.7385 15.6497 16.9473 16.5213 16.9473 17.4474C16.9473 18.9545 16.4162 20.2391 15.354 21.3014C14.2918 22.3636 13.0071 22.8947 11.5 22.8947ZM10.1654 11.0467H12.8346V9.60316H11.5V8.54092H12.8346V6.17132H11.5V5.10908H12.8346V4.07408C12.8346 3.69276 12.7075 3.375 12.4533 3.12079C12.1991 2.86658 11.8813 2.73947 11.5 2.73947C11.1187 2.73947 10.8009 2.86658 10.5467 3.12079C10.2925 3.375 10.1654 3.69276 10.1654 4.07408V11.0467Z" fill="white"/>
</svg>
